<svg width="101" height="101" viewBox="0 0 101 101" fill="none" xmlns="http://www.w3.org/2000/svg">
<circle cx="50.5" cy="50.5" r="50.5" fill="white"/>
<path d="M50.7837 30.6401H75.0337C75.586 30.6401 76.0337 31.0879 76.0337 31.6401V69.6429C76.0337 70.1952 75.586 70.6429 75.0337 70.6429H50.7837M50.7837 30.6401H26.5337C25.9814 30.6401 25.5337 31.0879 25.5337 31.6401V69.6429C25.5337 70.1952 25.9814 70.6429 26.5337 70.6429H50.7837M50.7837 30.6401V70.6429M32.059 39.4351H43.4073M57.309 39.4351H68.6573M57.309 46.8115H68.6573M57.309 55.039H68.6573M57.309 63.2665H68.6573M32.059 63.2665H43.4073M32.059 46.8115H43.4073M32.059 55.039H43.4073" stroke="black" stroke-width="2"/>
</svg>
