<svg width="227" height="227" viewBox="0 0 227 227" fill="none" xmlns="http://www.w3.org/2000/svg">
<circle cx="5" cy="5" r="5" fill="#FEFEFE" fill-opacity="0.2"/>
<circle cx="36" cy="5" r="5" fill="#FEFEFE" fill-opacity="0.2"/>
<circle cx="67" cy="5" r="5" fill="#FEFEFE" fill-opacity="0.2"/>
<circle cx="98" cy="5" r="5" fill="#FEFEFE" fill-opacity="0.2"/>
<circle cx="129" cy="5" r="5" fill="#FEFEFE" fill-opacity="0.2"/>
<circle cx="160" cy="5" r="5" fill="#FEFEFE" fill-opacity="0.2"/>
<circle cx="191" cy="5" r="5" fill="#FEFEFE" fill-opacity="0.2"/>
<circle cx="222" cy="5" r="5" fill="#FEFEFE" fill-opacity="0.2"/>
<circle cx="5" cy="36" r="5" fill="#FEFEFE" fill-opacity="0.2"/>
<circle cx="36" cy="36" r="5" fill="#FEFEFE" fill-opacity="0.2"/>
<circle cx="67" cy="36" r="5" fill="#FEFEFE" fill-opacity="0.2"/>
<circle cx="98" cy="36" r="5" fill="#FEFEFE" fill-opacity="0.2"/>
<circle cx="129" cy="36" r="5" fill="#FEFEFE" fill-opacity="0.2"/>
<circle cx="160" cy="36" r="5" fill="#FEFEFE" fill-opacity="0.2"/>
<circle cx="191" cy="36" r="5" fill="#FEFEFE" fill-opacity="0.2"/>
<circle cx="222" cy="36" r="5" fill="#FEFEFE" fill-opacity="0.2"/>
<circle cx="5" cy="67" r="5" fill="#FEFEFE" fill-opacity="0.2"/>
<circle cx="36" cy="67" r="5" fill="#FEFEFE" fill-opacity="0.2"/>
<circle cx="67" cy="67" r="5" fill="#FEFEFE" fill-opacity="0.2"/>
<circle cx="98" cy="67" r="5" fill="#FEFEFE" fill-opacity="0.2"/>
<circle cx="129" cy="67" r="5" fill="#FEFEFE" fill-opacity="0.2"/>
<circle cx="160" cy="67" r="5" fill="#FEFEFE" fill-opacity="0.2"/>
<circle cx="191" cy="67" r="5" fill="#FEFEFE" fill-opacity="0.2"/>
<circle cx="222" cy="67" r="5" fill="#FEFEFE" fill-opacity="0.2"/>
<circle cx="5" cy="98" r="5" fill="#FEFEFE" fill-opacity="0.2"/>
<circle cx="36" cy="98" r="5" fill="#FEFEFE" fill-opacity="0.2"/>
<circle cx="67" cy="98" r="5" fill="#FEFEFE" fill-opacity="0.2"/>
<circle cx="98" cy="98" r="5" fill="#FEFEFE" fill-opacity="0.2"/>
<circle cx="129" cy="98" r="5" fill="#FEFEFE" fill-opacity="0.2"/>
<circle cx="160" cy="98" r="5" fill="#FEFEFE" fill-opacity="0.2"/>
<circle cx="191" cy="98" r="5" fill="#FEFEFE" fill-opacity="0.2"/>
<circle cx="222" cy="98" r="5" fill="#FEFEFE" fill-opacity="0.2"/>
<circle cx="5" cy="129" r="5" fill="#FEFEFE" fill-opacity="0.2"/>
<circle cx="36" cy="129" r="5" fill="#FEFEFE" fill-opacity="0.2"/>
<circle cx="67" cy="129" r="5" fill="#FEFEFE" fill-opacity="0.2"/>
<circle cx="98" cy="129" r="5" fill="#FEFEFE" fill-opacity="0.2"/>
<circle cx="129" cy="129" r="5" fill="#FEFEFE" fill-opacity="0.2"/>
<circle cx="160" cy="129" r="5" fill="#FEFEFE" fill-opacity="0.2"/>
<circle cx="191" cy="129" r="5" fill="#FEFEFE" fill-opacity="0.2"/>
<circle cx="222" cy="129" r="5" fill="#FEFEFE" fill-opacity="0.2"/>
<circle cx="5" cy="160" r="5" fill="#FEFEFE" fill-opacity="0.2"/>
<circle cx="36" cy="160" r="5" fill="#FEFEFE" fill-opacity="0.2"/>
<circle cx="67" cy="160" r="5" fill="#FEFEFE" fill-opacity="0.2"/>
<circle cx="98" cy="160" r="5" fill="#FEFEFE" fill-opacity="0.2"/>
<circle cx="129" cy="160" r="5" fill="#FEFEFE" fill-opacity="0.2"/>
<circle cx="160" cy="160" r="5" fill="#FEFEFE" fill-opacity="0.2"/>
<circle cx="191" cy="160" r="5" fill="#FEFEFE" fill-opacity="0.2"/>
<circle cx="222" cy="160" r="5" fill="#FEFEFE" fill-opacity="0.2"/>
<circle cx="5" cy="191" r="5" fill="#FEFEFE" fill-opacity="0.2"/>
<circle cx="36" cy="191" r="5" fill="#FEFEFE" fill-opacity="0.2"/>
<circle cx="67" cy="191" r="5" fill="#FEFEFE" fill-opacity="0.2"/>
<circle cx="98" cy="191" r="5" fill="#FEFEFE" fill-opacity="0.2"/>
<circle cx="129" cy="191" r="5" fill="#FEFEFE" fill-opacity="0.2"/>
<circle cx="160" cy="191" r="5" fill="#FEFEFE" fill-opacity="0.2"/>
<circle cx="191" cy="191" r="5" fill="#FEFEFE" fill-opacity="0.2"/>
<circle cx="222" cy="191" r="5" fill="#FEFEFE" fill-opacity="0.2"/>
<circle cx="5" cy="222" r="5" fill="#FEFEFE" fill-opacity="0.2"/>
<circle cx="36" cy="222" r="5" fill="#FEFEFE" fill-opacity="0.2"/>
<circle cx="67" cy="222" r="5" fill="#FEFEFE" fill-opacity="0.2"/>
<circle cx="98" cy="222" r="5" fill="#FEFEFE" fill-opacity="0.2"/>
<circle cx="129" cy="222" r="5" fill="#FEFEFE" fill-opacity="0.2"/>
<circle cx="160" cy="222" r="5" fill="#FEFEFE" fill-opacity="0.2"/>
<circle cx="191" cy="222" r="5" fill="#FEFEFE" fill-opacity="0.2"/>
<circle cx="222" cy="222" r="5" fill="#FEFEFE" fill-opacity="0.2"/>
</svg>
