<svg width="198" height="50" viewBox="0 0 198 50" fill="none" xmlns="http://www.w3.org/2000/svg">
<rect y="10" width="3" height="30" rx="1.5" fill="white"/>
<rect x="15" width="3" height="50" rx="1.5" fill="white"/>
<rect x="30" y="5" width="3" height="40" rx="1.5" fill="white"/>
<rect x="45" y="3" width="3" height="45" rx="1.5" fill="white"/>
<rect x="60" y="10" width="3" height="30" rx="1.5" fill="white"/>
<rect x="75" y="15" width="3" height="20" rx="1.5" fill="white"/>
<rect x="90" width="3" height="50" rx="1.5" fill="white"/>
<rect x="135" y="15" width="3" height="20" rx="1.5" fill="white"/>
<rect x="150" y="5" width="3" height="40" rx="1.5" fill="white"/>
<rect x="165" y="10" width="3" height="30" rx="1.5" fill="white"/>
<rect x="180" width="3" height="50" rx="1.5" fill="white"/>
<rect x="195" y="13" width="3" height="25" rx="1.5" fill="white"/>
<rect x="105" y="3" width="3" height="45" rx="1.5" fill="white"/>
<rect x="120" y="10" width="3" height="30" rx="1.5" fill="white"/>
</svg>
